<?xml version="1.0" encoding="utf-8"?>
<!-- Generator: Adobe Illustrator 26.0.1, SVG Export Plug-In . SVG Version: 6.00 Build 0)  -->
<svg version="1.1" id="Layer_1" xmlns="http://www.w3.org/2000/svg" xmlns:xlink="http://www.w3.org/1999/xlink" x="0px" y="0px"
	 viewBox="0 0 49.7 49.7" style="enable-background:new 0 0 49.7 49.7;" xml:space="preserve">
<style type="text/css">
	.st0{fill:#002F87;}
	.st1{fill:#FFFFFF;}
</style>
<ellipse transform="matrix(0.2011 -0.9796 0.9796 0.2011 -4.4892 44.1984)" class="st0" cx="24.85" cy="24.85" rx="24.85" ry="24.85"/>
<path class="st1" d="M27.84,23.31c1.13-0.46,1.82-1.18,2.27-1.72c0.86-0.99,1.21-2.2,1.21-3.35c0-0.93-0.26-2.78-1.88-4.05
	c-1.12-0.86-2.11-1.28-4.47-1.28h-1.2c-0.04,0-0.07,0-0.12,0h-4.93v23.29H32.8v-4.47C32.8,27.45,31.42,24.57,27.84,23.31z
	 M29.61,34.91h-2.54v-7.77h-2.93v7.78h-2.24V14.07l2.31,0c0.86,0,2.17,0.19,3.1,1.34c0.48,0.58,0.78,1.36,0.88,2.13h-4.04v1.15h4.08
	c-0.03,0.74-0.18,1.57-0.91,2.45c-0.64,0.8-1.69,1.54-3.17,1.54c-0.01,0-0.02,0-0.03,0v1.16c3.96,0,5.5,2.63,5.5,7.45L29.61,34.91
	L29.61,34.91z M4.68,22.49l-1.17-0.1c-0.02,0.18-0.04,0.34-0.05,0.47c0.01-0.13,0.03-0.29,0.05-0.47L4.68,22.49z M45.97,29.14
	c0.1-0.15,0.17-0.32,0.2-0.51C46.14,28.82,46.07,28.99,45.97,29.14z M3.8,28.24l1.65,0.41c0,0,0,0,0,0L3.8,28.24z M17.34,6.05
	c-0.2-0.62,0.01-1.23,0.51-1.56C17.35,4.82,17.15,5.44,17.34,6.05c0.24,0.73,0.97,1.16,1.71,0.92c0.37-0.12,0.64-0.37,0.79-0.69
	c-0.14,0.31-0.41,0.57-0.79,0.69C18.31,7.21,17.58,6.78,17.34,6.05z M19.58,42.93l0.83,0.24l-0.3,1.04l0,0l0.3-1.04L19.58,42.93
	c-0.11-0.03-0.22-0.05-0.32-0.06C19.36,42.88,19.47,42.9,19.58,42.93z M19.31,44.59l0.64,0.19l-0.29,1.01l0.29-1.01L19.31,44.59
	c-0.11-0.03-0.21-0.05-0.3-0.05C19.1,44.54,19.2,44.56,19.31,44.59z M18.97,45.59c-0.43-0.12-0.61-0.38-0.53-0.68
	C18.36,45.21,18.54,45.46,18.97,45.59z M5.24,27.32L3.8,28.24L5.24,27.32C5.24,27.32,5.24,27.32,5.24,27.32z M43.61,27.64
	c-0.1,0.15-0.17,0.32-0.2,0.51C43.44,27.96,43.51,27.79,43.61,27.64z M42.89,16.86c0.03-0.03,0.07-0.05,0.1-0.08
	C42.96,16.81,42.92,16.83,42.89,16.86z M43.11,16.7C43.11,16.7,43.12,16.7,43.11,16.7C43.12,16.7,43.11,16.7,43.11,16.7z
	 M44.56,29.71c-0.67-0.12-1.15-0.63-1.17-1.27C43.4,29.08,43.89,29.59,44.56,29.71z M42.86,16.9c-0.05,0.05-0.1,0.1-0.15,0.16
	C42.75,17,42.8,16.95,42.86,16.9z M44.43,16.58c0.32,0.13,0.58,0.39,0.72,0.76c0.27,0.74-0.13,1.48-0.85,1.75
	c-0.07,0.02-0.13,0.02-0.2,0.04c0.07-0.02,0.13-0.01,0.2-0.04c0.72-0.27,1.12-1.01,0.85-1.75C45.01,16.97,44.75,16.71,44.43,16.58z
	 M18.05,42.98c-0.15,0.53,0.08,0.87,0.48,1.15c-0.32,0.06-0.66,0.23-0.79,0.69c-0.08,0.27-0.05,0.5,0.07,0.71
	c0.15,0.28,0.45,0.52,0.89,0.65l1.44,0.37l1.1-3.77l-1.48-0.43C18.91,42.1,18.25,42.3,18.05,42.98z M19.66,45.79l-0.69-0.2
	c-0.43-0.12-0.61-0.38-0.53-0.68c0.08-0.27,0.29-0.38,0.57-0.37c0.09,0,0.19,0.02,0.3,0.05l0.64,0.19L19.66,45.79z M20.11,44.22
	L20.11,44.22L20.11,44.22l-0.79-0.23c-0.53-0.15-0.72-0.42-0.63-0.74c0.08-0.26,0.28-0.39,0.57-0.37c0.1,0,0.2,0.02,0.32,0.06
	l0.83,0.24L20.11,44.22z M19.33,43.99l0.78,0.23l0,0L19.33,43.99c-0.53-0.15-0.73-0.42-0.63-0.74c0.08-0.26,0.28-0.39,0.57-0.37
	c-0.29-0.01-0.49,0.11-0.57,0.37C18.6,43.57,18.8,43.83,19.33,43.99z M18.44,44.91c0.08-0.27,0.29-0.38,0.57-0.37
	C18.73,44.53,18.52,44.64,18.44,44.91z M14.31,41.28c-0.4,0.69-0.11,1.37,0.65,1.82l0.54,0.32l-0.72,1.23l0.59,0.35l2-3.4
	l-1.13-0.66C15.46,40.45,14.71,40.59,14.31,41.28z M15.8,42.89l-0.52-0.3c-0.45-0.27-0.6-0.61-0.39-0.96
	c0.11-0.19,0.26-0.3,0.44-0.33c0.18-0.03,0.38,0.03,0.6,0.16l0.53,0.31L15.8,42.89z M15.34,41.3c0.18-0.03,0.38,0.03,0.6,0.16
	C15.72,41.33,15.51,41.28,15.34,41.3z M15.29,42.59c-0.45-0.27-0.6-0.61-0.39-0.96C14.69,41.98,14.84,42.32,15.29,42.59z
	 M14.31,39.77L12.04,43l-0.56-0.4l2.27-3.23L14.31,39.77z M3.91,24.38c0.68,0.05,1.05-0.35,1.19-0.67l0.69,0.59
	c0.18,0.16,0.31,0.48,0.23,0.69l0.6-0.01c0.15-0.32,0.06-0.79-0.4-1.18l-0.93-0.78l0.04-0.48l1.42,0.13l0.1-0.7l-3.91-0.31
	c-0.04,0.22-0.13,1.08-0.14,1.2C2.71,23.93,3.23,24.32,3.91,24.38z M3.51,22.4l1.17,0.1l-0.04,0.45c-0.03,0.4-0.26,0.74-0.67,0.7
	c-0.31-0.02-0.56-0.22-0.51-0.78C3.47,22.74,3.49,22.58,3.51,22.4z M11.41,40.06c-0.82,0.75-2.08,0.76-2.91-0.13
	c-0.49-0.53-0.65-1.19-0.53-1.8l0.69,0.15c-0.11,0.42-0.01,0.87,0.31,1.23c0.53,0.58,1.36,0.55,1.94,0.02
	c0.56-0.52,0.65-1.36,0.12-1.94c-0.34-0.36-0.79-0.49-1.23-0.4l-0.1-0.69c0.63-0.09,1.3,0.12,1.81,0.66
	C12.34,38.05,12.24,39.3,11.41,40.06z M7.1,29.05l-0.99-0.24h0C6.05,28.5,6,28.2,5.95,27.89c-0.05-0.31-0.09-0.62-0.13-0.93l0,0
	l0.86-0.53l-0.05-0.76l-3.7,2.37l0.1,0.64l4.26,1.09L7.1,29.05z M5.46,28.65L3.8,28.24l1.44-0.92c0,0,0,0,0,0l0,0
	c0.03,0.22,0.06,0.45,0.1,0.67C5.37,28.21,5.41,28.43,5.46,28.65L5.46,28.65C5.46,28.65,5.46,28.65,5.46,28.65z M5.46,28.65
	L5.46,28.65c-0.04-0.22-0.08-0.44-0.12-0.66c-0.04-0.22-0.07-0.44-0.1-0.67l0,0c0.03,0.22,0.06,0.45,0.1,0.67
	C5.37,28.21,5.41,28.43,5.46,28.65z M9.23,35.45l-2.98,1.46C6.12,36.72,6,36.52,5.88,36.33l2.96-1.47
	c-0.27-0.44-0.53-0.88-0.76-1.34l-2.96,1.45c-0.11-0.21-0.21-0.41-0.31-0.62l2.96-1.45c-0.22-0.47-0.42-0.95-0.6-1.44L4.2,32.92
	c-0.08-0.22-0.16-0.43-0.24-0.65l2.98-1.47l0.58-0.29c0.54,1.65,1.3,3.21,2.28,4.65L9.23,35.45z M43.11,15.9
	c-1.05,0.39-1.62,1.5-1.2,2.64c0.42,1.14,1.59,1.62,2.64,1.23c1.05-0.39,1.62-1.5,1.2-2.64C45.33,15.99,44.15,15.51,43.11,15.9z
	 M45.15,17.34c0.27,0.74-0.13,1.48-0.85,1.75c-0.07,0.02-0.13,0.02-0.2,0.04c-0.67,0.15-1.33-0.13-1.58-0.79
	c-0.17-0.46-0.08-0.92,0.19-1.27c0.04-0.06,0.1-0.11,0.15-0.16c0.01-0.01,0.02-0.02,0.03-0.04c0.03-0.03,0.07-0.05,0.1-0.08
	c0.04-0.03,0.08-0.06,0.12-0.09c0,0,0,0,0.01,0c0.08-0.05,0.16-0.09,0.25-0.12c0.37-0.14,0.74-0.13,1.06,0
	C44.75,16.71,45.01,16.97,45.15,17.34z M44.43,16.58c-0.32-0.13-0.7-0.14-1.06,0c-0.09,0.03-0.17,0.07-0.25,0.12
	c0.08-0.05,0.16-0.09,0.25-0.12C43.73,16.44,44.11,16.45,44.43,16.58z M44.1,19.12c-0.67,0.15-1.33-0.13-1.58-0.79
	c-0.17-0.46-0.08-0.92,0.19-1.27c-0.27,0.35-0.36,0.81-0.19,1.27C42.77,18.99,43.43,19.27,44.1,19.12z M43.11,16.7
	c-0.04,0.03-0.08,0.06-0.12,0.09C43.03,16.76,43.07,16.72,43.11,16.7z M42.89,16.86c-0.01,0.01-0.02,0.02-0.03,0.04
	C42.87,16.88,42.88,16.87,42.89,16.86z M45.15,26.36c-1.11-0.19-2.16,0.48-2.37,1.67c-0.21,1.19,0.56,2.2,1.65,2.39
	c1.11,0.19,2.16-0.48,2.37-1.67C47.01,27.56,46.24,26.55,45.15,26.36z M46.17,28.63c-0.03,0.19-0.1,0.37-0.2,0.51
	c-0.3,0.44-0.85,0.67-1.41,0.57c-0.67-0.12-1.15-0.63-1.17-1.27c0-0.09,0-0.19,0.02-0.28c0.03-0.19,0.1-0.37,0.2-0.51
	c0.3-0.44,0.85-0.67,1.41-0.57C45.79,27.21,46.31,27.86,46.17,28.63z M44.56,29.71c0.57,0.1,1.12-0.12,1.41-0.57
	C45.67,29.58,45.12,29.81,44.56,29.71z M45.02,27.07c-0.57-0.1-1.12,0.12-1.41,0.57C43.91,27.19,44.46,26.97,45.02,27.07z
	 M43.38,28.43c0-0.09,0-0.19,0.02-0.28C43.39,28.25,43.38,28.34,43.38,28.43z M39.14,13.48l3.26-2.14l0.42,0.56l-1.37,0.9l0.22,0.34
	l2.11,0.24l0.42,0.69l-2.4-0.34L41.4,15c-0.14,0.45-0.14,0.76,0.08,0.95l-0.5,0.33c-0.47-0.39-0.41-0.97-0.2-1.56l0.41-1.17
	l-0.26-0.4l-1.37,0.9L39.14,13.48z M35.85,39.43l2.06,3.32l-0.57,0.4l-0.86-1.4l-0.34,0.21l-0.29,2.1l-0.7,0.41l0.4-2.39l-1.27-0.45
	c-0.45-0.15-0.76-0.16-0.95,0.05L33,41.18c0.41-0.46,0.98-0.39,1.57-0.16l1.16,0.44l0.4-0.25l-0.86-1.39L35.85,39.43z M39.42,35.84
	l2.89,2.65l-0.43,0.53l-2.1-1.93l0.64,3.52l-0.49,0.47l-2.89-2.65l0.5-0.47l2.12,1.95l-0.65-3.55L39.42,35.84z M32.09,41.6l1.2,3.74
	l-0.64,0.25l-0.87-2.71l-1.18,3.38l-0.66,0.17l-1.2-3.74l0.66-0.16l0.88,2.74l1.19-3.41L32.09,41.6z M42.11,30.78l3.43,2.01
	l-0.38,0.92c0,0-2.67-0.29-3.12-0.39l-0.01,0.02c0.34,0.29,2.18,2.29,2.18,2.29l-0.5,0.85l-3.66-1.53l0.39-0.63l1.49,0.64
	c0.47,0.2,1.03,0.45,1.51,0.69l0.01-0.02c-0.37-0.34-2.36-2.52-2.36-2.52l0.26-0.53c0,0,2.88,0.35,3.38,0.46l0.01-0.01
	c-0.46-0.25-1.01-0.55-1.48-0.81l-1.39-0.79L42.11,30.78z M42.77,21.34l3.9-0.37l0.11,0.69l-1.65,0.15l-0.01,0
	c0.05,0.37,0.1,0.75,0.14,1.12c0.03,0.37,0.06,0.75,0.07,1.13l0.01,0l1.63-0.15l0.03,0.69l-3.9,0.37l-0.02-0.7l1.61-0.15l0.02,0
	c-0.01-0.38-0.04-0.75-0.07-1.13c-0.04-0.37-0.08-0.75-0.14-1.12l-0.02,0l-1.61,0.15L42.77,21.34z M37.06,11.35
	c-0.55-0.5-0.77-1.17-0.68-1.8l0.69,0.1c-0.09,0.44,0.04,0.89,0.41,1.23c0.5,0.46,1.2,0.45,1.71,0.07c-0.29-0.3-0.59-0.59-0.9-0.87
	c-0.12-0.11-0.25-0.23-0.38-0.34l0.4-0.47c0.13,0.11,0.26,0.23,0.39,0.35c0.31,0.28,0.61,0.57,0.9,0.87
	c0.33-0.55,0.27-1.23-0.23-1.68c-0.36-0.32-0.81-0.41-1.23-0.3l-0.15-0.69c0.61-0.13,1.27,0.03,1.8,0.51
	c0.9,0.82,0.91,2.08,0.16,2.9C39.2,12.06,37.96,12.17,37.06,11.35z M19.24,7.58C20.4,7.21,20.92,6.06,20.58,5
	c-0.35-1.07-1.44-1.68-2.59-1.31c-1.15,0.38-1.68,1.53-1.34,2.58C17,7.34,18.09,7.96,19.24,7.58z M17.85,4.49
	c0.1-0.07,0.2-0.14,0.33-0.19c0.75-0.24,1.47,0.19,1.71,0.92c0.12,0.37,0.1,0.75-0.05,1.06c-0.14,0.31-0.41,0.57-0.79,0.69
	c-0.75,0.24-1.47-0.19-1.71-0.92C17.14,5.44,17.35,4.82,17.85,4.49z M18.18,4.3c-0.13,0.04-0.22,0.12-0.33,0.18
	C17.95,4.42,18.05,4.34,18.18,4.3c0.75-0.24,1.48,0.19,1.71,0.92c0.12,0.37,0.1,0.75-0.05,1.06c0.14-0.31,0.17-0.69,0.05-1.06
	C19.65,4.49,18.92,4.06,18.18,4.3z M13.95,10.21l-2.04-3.33l0.57-0.4l0.86,1.4l0.34-0.21l0.31-2.1l0.7-0.4l-0.42,2.38L15.54,8
	c0.45,0.16,0.76,0.17,0.95-0.05l0.31,0.52c-0.41,0.45-0.98,0.38-1.57,0.15l-1.16-0.44l-0.41,0.25l0.85,1.39L13.95,10.21z M9.03,14.6
	l-2.51-2.17c0.13-0.19,0.26-0.38,0.4-0.57l2.51,2.16c0.3-0.42,0.61-0.83,0.94-1.22l-2.49-2.16c0.15-0.18,0.3-0.35,0.45-0.53
	l2.49,2.16c0.35-0.39,0.71-0.76,1.09-1.12L9.4,8.99c0.16-0.16,0.33-0.32,0.5-0.48l2.51,2.17l0.49,0.42
	c-1.31,1.14-2.45,2.45-3.38,3.92L9.03,14.6z M27.47,5.88L27.47,5.88c0.31,0.04,0.62,0.09,0.92,0.15c0.3,0.06,0.61,0.12,0.91,0.19v0
	l0.21,0.99l0.73,0.21l-0.98-4.28l-0.63-0.12l-2.47,3.64l0.74,0.07L27.47,5.88z M28.79,3.89l0.38,1.66
	c-0.22-0.05-0.44-0.09-0.66-0.14c-0.22-0.04-0.44-0.08-0.66-0.11L28.79,3.89z M22.05,6.86c-0.15,0.01-0.37-0.01-0.48-0.02l0.02-0.57
	c0.05,0.01,0.14,0.02,0.23,0.02c0.4-0.03,0.75-0.31,0.57-2.67l-0.01-0.16l-0.05-0.62c0.03,0,0.07-0.01,0.1-0.01l1.49-0.11
	c0.37-0.02,0.75-0.02,1.12-0.02l0.05,0.62l0.25,3.26l-0.69,0.05l-0.25-3.3C24,3.32,23.61,3.34,23.22,3.37
	c-0.07,0.01-0.13,0.01-0.2,0.02l0.03,0.38C23.24,6.27,22.83,6.8,22.05,6.86z M25.65,45.09c0,0.44-0.35,0.79-0.79,0.79
	c-0.44,0-0.79-0.35-0.79-0.79c0-0.44,0.35-0.79,0.79-0.79C25.3,44.3,25.65,44.65,25.65,45.09z M5.32,17.26
	c0.04-0.43,0.43-0.75,0.87-0.71c0.43,0.04,0.75,0.43,0.71,0.87c-0.04,0.43-0.43,0.75-0.87,0.71C5.59,18.08,5.27,17.7,5.32,17.26z
	 M33.27,6.48c0.2-0.39,0.67-0.55,1.06-0.35c0.39,0.2,0.55,0.67,0.35,1.06c-0.2,0.39-0.67,0.55-1.06,0.35
	C33.23,7.34,33.07,6.87,33.27,6.48z"/>
</svg>
