<?xml version="1.0" encoding="utf-8"?>
<!-- Generator: Adobe Illustrator 26.0.1, SVG Export Plug-In . SVG Version: 6.00 Build 0)  -->
<svg version="1.1" id="Layer_1" xmlns="http://www.w3.org/2000/svg" xmlns:xlink="http://www.w3.org/1999/xlink" x="0px" y="0px"
	 viewBox="0 0 51.02 51.02" style="enable-background:new 0 0 51.02 51.02;" xml:space="preserve">
<style type="text/css">
	.st0{fill-rule:evenodd;clip-rule:evenodd;fill:#002F87;}
	.st1{fill:#FFFFFF;}
</style>
<g>
	
		<ellipse transform="matrix(0.6669 -0.7451 0.7451 0.6669 -10.5121 27.507)" class="st0" cx="25.51" cy="25.51" rx="24.87" ry="24.87"/>
	<path class="st1" d="M25.51,0C11.44,0,0,11.44,0,25.51c0,14.07,11.44,25.51,25.51,25.51c14.07,0,25.51-11.44,25.51-25.51
		C51.02,11.44,39.58,0,25.51,0z M25.51,50.7c-13.89,0-25.19-11.3-25.19-25.19c0-13.89,11.3-25.19,25.19-25.19
		c13.89,0,25.19,11.3,25.19,25.19C50.7,39.4,39.4,50.7,25.51,50.7z M25.51,0.32c-13.89,0-25.19,11.3-25.19,25.19
		c0,13.89,11.3,25.19,25.19,25.19c13.89,0,25.19-11.3,25.19-25.19C50.7,11.62,39.4,0.32,25.51,0.32z M25.51,50.38
		c-13.73,0-24.87-11.13-24.87-24.87S11.78,0.65,25.51,0.65c13.73,0,24.87,11.13,24.87,24.87S39.24,50.38,25.51,50.38z M28.5,23.97
		c1.13-0.46,1.82-1.18,2.27-1.72c0.86-0.99,1.21-2.2,1.21-3.35c0-0.93-0.26-2.78-1.88-4.06c-1.12-0.86-2.11-1.28-4.47-1.28h-1.2
		c-0.04,0-0.07,0-0.12,0h-4.94v23.3h14.09v-4.47C33.46,28.11,32.08,25.23,28.5,23.97z M30.27,35.58h-2.54V27.8H24.8v7.79h-2.25
		V14.72l2.31,0c0.86,0,2.17,0.19,3.1,1.34c0.48,0.58,0.78,1.36,0.88,2.13H24.8v1.15h4.08c-0.03,0.74-0.18,1.57-0.91,2.45
		c-0.64,0.8-1.69,1.54-3.17,1.54c-0.01,0-0.02,0-0.03,0v1.16c3.96,0,5.5,2.63,5.5,7.45V35.58z M20.81,47.22l-1.45-0.37
		c-0.43-0.13-0.73-0.37-0.89-0.65c-0.12-0.22-0.15-0.45-0.07-0.71c0.13-0.46,0.46-0.62,0.79-0.69c-0.4-0.28-0.64-0.63-0.48-1.15
		c0.2-0.68,0.86-0.88,1.71-0.63l1.49,0.43L20.81,47.22z M19.97,45.27c-0.43-0.12-0.76-0.04-0.87,0.32c-0.09,0.3,0.1,0.55,0.53,0.68
		l0.69,0.2l0.29-1.01L19.97,45.27z M20.24,43.6c-0.46-0.13-0.78-0.03-0.89,0.32c-0.09,0.32,0.11,0.58,0.63,0.74l0.79,0.23l0.3-1.04
		L20.24,43.6z M16.9,41.59c-0.79-0.46-1.54-0.33-1.94,0.36c-0.4,0.69-0.11,1.37,0.65,1.82l0.54,0.32l-0.72,1.23l0.59,0.35l2-3.41
		L16.9,41.59z M15.94,43.26c-0.45-0.27-0.6-0.61-0.39-0.96c0.23-0.38,0.6-0.43,1.04-0.17l0.53,0.31l-0.66,1.12L15.94,43.26z
		 M14.4,40.05l-2.27,3.23l0.56,0.4l2.27-3.23L14.4,40.05z M7.39,23.33L5.98,23.2l-0.04,0.48l0.93,0.78c0.46,0.39,0.55,0.85,0.4,1.18
		l-0.6,0.01c0.08-0.21-0.05-0.53-0.23-0.69l-0.69-0.59c-0.14,0.32-0.51,0.72-1.19,0.67c-0.68-0.06-1.2-0.45-1.12-1.52
		c0.01-0.11,0.1-0.98,0.14-1.2l3.91,0.31L7.39,23.33z M4.11,23.53c-0.05,0.56,0.21,0.75,0.51,0.78c0.41,0.03,0.64-0.3,0.67-0.7
		l0.04-0.45l-1.17-0.1C4.14,23.24,4.12,23.4,4.11,23.53z M10.46,37.86c0.44-0.09,0.89,0.03,1.23,0.4c0.53,0.58,0.44,1.42-0.12,1.94
		c-0.57,0.53-1.4,0.55-1.94-0.02c-0.33-0.35-0.42-0.81-0.31-1.23L8.63,38.8c-0.12,0.61,0.04,1.27,0.53,1.8
		c0.82,0.89,2.09,0.89,2.91,0.13c0.82-0.76,0.92-2.01,0.1-2.9c-0.51-0.55-1.18-0.76-1.81-0.66L10.46,37.86z M3.58,28.7l0.1,0.64
		l4.26,1.09l-0.18-0.72l-0.99-0.24l0,0c-0.06-0.3-0.12-0.61-0.17-0.92c-0.05-0.31-0.09-0.62-0.13-0.93l0,0l0.86-0.53l-0.05-0.76
		L3.58,28.7z M6.1,29.31L4.45,28.9l1.44-0.92c0.03,0.22,0.06,0.45,0.1,0.67C6.02,28.87,6.06,29.09,6.1,29.31z M7.82,32.11
		C8,32.6,8.2,33.08,8.43,33.56l-2.96,1.45c0.1,0.21,0.2,0.42,0.31,0.62l2.96-1.45c0.24,0.46,0.49,0.9,0.76,1.34l-2.97,1.47
		c0.12,0.2,0.24,0.39,0.37,0.59l2.98-1.47l0.58-0.29c-0.98-1.44-1.75-3-2.29-4.65l-0.58,0.29l-2.98,1.47
		c0.08,0.22,0.16,0.43,0.24,0.65L7.82,32.11z M43.78,16.55c1.04-0.39,2.21,0.09,2.64,1.23s-0.15,2.25-1.2,2.64
		c-1.04,0.39-2.21-0.09-2.64-1.23C42.16,18.06,42.73,16.94,43.78,16.55z M44.97,19.74c0.72-0.27,1.12-1.01,0.85-1.75
		c-0.27-0.74-1.05-1.03-1.78-0.76c-0.72,0.27-1.12,1.01-0.85,1.75C43.46,19.72,44.24,20.01,44.97,19.74z M45.82,27.02
		c1.1,0.19,1.86,1.2,1.65,2.4c-0.21,1.2-1.26,1.87-2.37,1.67c-1.1-0.19-1.86-1.2-1.65-2.4C43.66,27.5,44.72,26.82,45.82,27.02z
		 M45.23,30.37c0.76,0.13,1.48-0.31,1.62-1.08c0.14-0.77-0.39-1.42-1.15-1.56c-0.76-0.13-1.48,0.31-1.62,1.08
		C43.94,29.59,44.46,30.23,45.23,30.37z M42.07,15.65l0.41-1.28l2.4,0.34l-0.43-0.69l-2.11-0.24l-0.22-0.34l1.37-0.9l-0.42-0.56
		l-3.27,2.14l0.41,0.56l1.37-0.9l0.26,0.4l-0.41,1.17c-0.22,0.6-0.27,1.17,0.2,1.57l0.5-0.33C41.92,16.41,41.92,16.1,42.07,15.65z
		 M34.94,42.32l1.27,0.45l-0.4,2.39l0.7-0.41l0.29-2.1l0.34-0.21l0.86,1.4l0.57-0.4l-2.06-3.32l-0.57,0.39l0.86,1.39l-0.41,0.25
		l-1.16-0.44c-0.59-0.23-1.16-0.3-1.57,0.16l0.32,0.51C34.18,42.15,34.49,42.16,34.94,42.32z M42.98,39.16l-0.43,0.53l-2.1-1.93
		l0.64,3.52l-0.49,0.47l-2.89-2.65l0.5-0.47l2.12,1.95l-0.65-3.55l0.41-0.52L42.98,39.16z M33.95,46.01l-0.64,0.25l-0.87-2.72
		l-1.18,3.38l-0.66,0.17l-1.2-3.74l0.66-0.16l0.88,2.74l1.2-3.41l0.61-0.25L33.95,46.01z M42.6,35.62c0.47,0.2,1.03,0.45,1.51,0.69
		l0.01-0.02c-0.37-0.34-2.36-2.52-2.36-2.52l0.26-0.53c0,0,2.89,0.35,3.38,0.46l0.01-0.01c-0.46-0.25-1.01-0.55-1.48-0.81
		l-1.39-0.79l0.25-0.67l3.43,2.01l-0.38,0.93c0,0-2.68-0.29-3.12-0.39L42.71,34c0.34,0.29,2.18,2.29,2.18,2.29l-0.5,0.85l-3.66-1.53
		l0.39-0.63L42.6,35.62z M47.65,24.57l-1.64,0.15l-0.01,0c-0.01-0.38-0.04-0.75-0.07-1.13c-0.04-0.37-0.08-0.75-0.14-1.12l0.01,0
		l1.65-0.15l-0.11-0.69L43.44,22l0.11,0.69l1.61-0.15l0.02,0c0.06,0.37,0.1,0.75,0.14,1.12c0.04,0.37,0.06,0.75,0.07,1.13l-0.02,0
		l-1.61,0.15l0.02,0.7l3.9-0.37L47.65,24.57z M40.47,8.97c-0.54-0.49-1.2-0.64-1.8-0.51l0.15,0.69c0.42-0.11,0.87-0.02,1.23,0.3
		c0.5,0.45,0.56,1.13,0.23,1.68c-0.29-0.3-0.59-0.59-0.9-0.87c-0.13-0.12-0.26-0.23-0.39-0.35l-0.4,0.47
		c0.13,0.11,0.25,0.22,0.38,0.34c0.31,0.28,0.61,0.57,0.9,0.87c-0.51,0.38-1.21,0.39-1.71-0.07c-0.37-0.33-0.5-0.79-0.41-1.23
		l-0.69-0.1c-0.09,0.63,0.13,1.3,0.68,1.8c0.9,0.82,2.14,0.7,2.9-0.13C41.37,11.06,41.36,9.79,40.47,8.97z M17.31,6.92
		c-0.34-1.06,0.18-2.21,1.34-2.58c1.15-0.38,2.24,0.24,2.59,1.31c0.34,1.06-0.18,2.21-1.34,2.58C18.74,8.61,17.65,7.99,17.31,6.92z
		 M20.55,5.87c-0.24-0.73-0.97-1.16-1.71-0.92C18.09,5.19,17.76,5.96,18,6.7c0.24,0.73,0.97,1.16,1.71,0.92
		C20.46,7.38,20.79,6.61,20.55,5.87z M16.2,8.65L14.93,8.2l0.42-2.39l-0.7,0.4l-0.31,2.1l-0.34,0.21l-0.86-1.4l-0.57,0.4l2.04,3.33
		l0.58-0.39l-0.85-1.39l0.41-0.25l1.16,0.44c0.59,0.24,1.16,0.31,1.57-0.15l-0.31-0.52C16.95,8.82,16.64,8.81,16.2,8.65z
		 M12.56,11.8c-0.38,0.36-0.74,0.73-1.09,1.12l-2.49-2.16c-0.15,0.17-0.31,0.35-0.45,0.53l2.49,2.16c-0.33,0.39-0.64,0.8-0.94,1.22
		l-2.51-2.16c-0.14,0.19-0.27,0.38-0.4,0.57l2.51,2.18l0.49,0.42c0.94-1.46,2.08-2.78,3.39-3.92l-0.49-0.42l-2.52-2.17
		c-0.17,0.16-0.34,0.31-0.5,0.48L12.56,11.8z M29.93,3.79L29.3,3.67l-2.47,3.64l0.74,0.07l0.56-0.85l0,0
		c0.31,0.04,0.62,0.09,0.92,0.15c0.31,0.06,0.61,0.12,0.91,0.19l0,0l0.21,0.99l0.73,0.21L29.93,3.79z M28.5,5.96l0.95-1.42
		l0.38,1.66c-0.22-0.05-0.44-0.09-0.66-0.14C28.95,6.03,28.72,5.99,28.5,5.96z M24.58,3.36l-1.49,0.11c-0.03,0-0.07,0.01-0.1,0.01
		l0.05,0.62l0.01,0.16c0.18,2.36-0.17,2.64-0.57,2.67c-0.08,0.01-0.18,0-0.23-0.02l-0.02,0.57c0.11,0.02,0.33,0.04,0.48,0.03
		c0.78-0.06,1.19-0.59,1-3.1l-0.03-0.38c0.07-0.01,0.13-0.01,0.2-0.02c0.39-0.03,0.78-0.05,1.17-0.06l0.25,3.31l0.69-0.05
		l-0.25-3.26L25.7,3.34C25.33,3.34,24.95,3.34,24.58,3.36z M26.31,45.76c0-0.44-0.35-0.79-0.79-0.79c-0.44,0-0.79,0.35-0.79,0.79
		c0,0.44,0.35,0.79,0.79,0.79C25.96,46.55,26.31,46.2,26.31,45.76z M6.46,18.73c0.41,0.16,0.87-0.03,1.03-0.44
		c0.16-0.41-0.03-0.87-0.44-1.03C6.64,17.1,6.18,17.3,6.02,17.7C5.86,18.11,6.05,18.57,6.46,18.73z M33.94,7.13
		c-0.2,0.39-0.04,0.87,0.35,1.06c0.39,0.2,0.87,0.04,1.06-0.35c0.2-0.39,0.04-0.87-0.35-1.06C34.61,6.58,34.13,6.74,33.94,7.13z"/>
</g>
</svg>
